<svg xmlns="http://www.w3.org/2000/svg" xmlns:xlink="http://www.w3.org/1999/xlink" contentStyleType="text/css" data-diagram-type="DESCRIPTION" height="865px" preserveAspectRatio="none" style="width:1156px;height:865px;background:#FFFFFF;" version="1.1" viewBox="0 0 1156 865" width="1156px" zoomAndPan="magnify"><defs/><g><!--cluster ??????????--><g class="cluster" data-entity=".........." data-source-line="8" data-uid="ent0003" id="cluster_.........."><path d="M155.83,11.602 L250.3356,11.602 A3.75,3.75 0 0 1 252.8356,14.102 L259.8356,36.6699 L983.62,36.6699 A2.5,2.5 0 0 1 986.12,39.1699 L986.12,856.102 A2.5,2.5 0 0 1 983.62,858.602 L155.83,858.602 A2.5,2.5 0 0 1 153.33,856.102 L153.33,14.102 A2.5,2.5 0 0 1 155.83,11.602" fill="#FFFFFF" style="stroke:#000000;stroke-width:1;"/><line style="stroke:#000000;stroke-width:1;" x1="153.33" x2="259.8356" y1="36.6699" y2="36.6699"/><text fill="#000000" font-family="Verdana" font-size="14" font-weight="bold" lengthAdjust="spacing" textLength="93.5056" x="157.33" y="28.5679">&#1055;&#1088;&#1080;&#1083;&#1086;&#1078;&#1077;&#1085;&#1080;&#1077;</text></g><!--cluster ??????? ?????????????--><g class="cluster" data-entity="....... ............." data-source-line="10" data-uid="ent0004" id="cluster_....... ............."><path d="M179.83,376.602 L355.2273,376.602 A3.75,3.75 0 0 1 357.7273,379.102 L364.7273,401.6699 L402.78,401.6699 A2.5,2.5 0 0 1 405.28,404.1699 L405.28,764.102 A2.5,2.5 0 0 1 402.78,766.602 L179.83,766.602 A2.5,2.5 0 0 1 177.33,764.102 L177.33,379.102 A2.5,2.5 0 0 1 179.83,376.602" fill="#FFFFFF" style="stroke:#000000;stroke-width:1;"/><line style="stroke:#000000;stroke-width:1;" x1="177.33" x2="364.7273" y1="401.6699" y2="401.6699"/><text fill="#000000" font-family="Verdana" font-size="14" font-weight="bold" lengthAdjust="spacing" textLength="174.3973" x="181.33" y="393.5679">&#1059;&#1088;&#1086;&#1074;&#1077;&#1085;&#1100; &#1087;&#1088;&#1077;&#1076;&#1089;&#1090;&#1072;&#1074;&#1083;&#1077;&#1085;&#1080;&#1103;</text></g><!--cluster ??????? ??????-??????--><g class="cluster" data-entity="....... ......-......" data-source-line="18" data-uid="ent0010" id="cluster_....... ......-......"><path d="M440.78,57.602 L612.1313,57.602 A3.75,3.75 0 0 1 614.6313,60.102 L621.6313,82.6699 L690.62,82.6699 A2.5,2.5 0 0 1 693.12,85.1699 L693.12,832.102 A2.5,2.5 0 0 1 690.62,834.602 L440.78,834.602 A2.5,2.5 0 0 1 438.28,832.102 L438.28,60.102 A2.5,2.5 0 0 1 440.78,57.602" fill="#FFFFFF" style="stroke:#000000;stroke-width:1;"/><line style="stroke:#000000;stroke-width:1;" x1="438.28" x2="621.6313" y1="82.6699" y2="82.6699"/><text fill="#000000" font-family="Verdana" font-size="14" font-weight="bold" lengthAdjust="spacing" textLength="170.3513" x="442.28" y="74.5679">&#1059;&#1088;&#1086;&#1074;&#1077;&#1085;&#1100; &#1073;&#1080;&#1079;&#1085;&#1077;&#1089;-&#1083;&#1086;&#1075;&#1080;&#1082;&#1080;</text></g><!--cluster ????????? ???????--><g class="cluster" data-entity="......... ......." data-source-line="20" data-uid="ent0011" id="cluster_......... ......."><rect fill="#FFFFFF" height="242" rx="2.5" ry="2.5" style="stroke:#000000;stroke-width:1;" width="206.84" x="462.28" y="450.602"/><text fill="#000000" font-family="Verdana" font-size="14" font-weight="bold" lengthAdjust="spacing" textLength="138.7254" x="496.3373" y="467.5679">&#1054;&#1073;&#1088;&#1072;&#1073;&#1086;&#1090;&#1082;&#1072; &#1079;&#1072;&#1082;&#1072;&#1079;&#1086;&#1074;</text></g><!--cluster ?????????? ?????????--><g class="cluster" data-entity=".......... ........." data-source-line="26" data-uid="ent0015" id="cluster_.......... ........."><rect fill="#FFFFFF" height="94" rx="2.5" ry="2.5" style="stroke:#000000;stroke-width:1;" width="201.14" x="465.13" y="332.602"/><text fill="#000000" font-family="Verdana" font-size="14" font-weight="bold" lengthAdjust="spacing" textLength="166.5013" x="482.4493" y="349.5679">&#1059;&#1087;&#1088;&#1072;&#1074;&#1083;&#1077;&#1085;&#1080;&#1077; &#1076;&#1086;&#1089;&#1090;&#1072;&#1074;&#1082;&#1086;&#1081;</text></g><!--cluster ???????? ???????--><g class="cluster" data-entity="........ ......." data-source-line="30" data-uid="ent0017" id="cluster_........ ......."><rect fill="#FFFFFF" height="205" rx="2.5" ry="2.5" style="stroke:#000000;stroke-width:1;" width="185.74" x="472.83" y="103.602"/><text fill="#000000" font-family="Verdana" font-size="14" font-weight="bold" lengthAdjust="spacing" textLength="128.0855" x="501.6573" y="120.5679">&#1050;&#1072;&#1095;&#1077;&#1089;&#1090;&#1074;&#1086; &#1089;&#1077;&#1088;&#1074;&#1080;&#1089;&#1072;</text></g><!--cluster ???????????????--><g class="cluster" data-entity="..............." data-source-line="35" data-uid="ent0020" id="cluster_..............."><rect fill="#FFFFFF" height="94" rx="2.5" ry="2.5" style="stroke:#000000;stroke-width:1;" width="182.31" x="474.54" y="716.602"/><text fill="#000000" font-family="Verdana" font-size="14" font-weight="bold" lengthAdjust="spacing" textLength="131.3615" x="500.0143" y="733.5679">&#1042;&#1089;&#1087;&#1086;&#1084;&#1086;&#1075;&#1072;&#1090;&#1077;&#1083;&#1100;&#1085;&#1099;&#1077;</text></g><!--cluster ??????? ??????? ? ??????--><g class="cluster" data-entity="....... ....... . ......" data-source-line="40" data-uid="ent0022" id="cluster_....... ....... . ......"><path d="M752.62,450.602 L950.5152,450.602 A3.75,3.75 0 0 1 953.0152,453.102 L960.0152,475.6699 L959.62,475.6699 A2.5,2.5 0 0 1 962.12,478.1699 L962.12,542.102 A2.5,2.5 0 0 1 959.62,544.602 L752.62,544.602 A2.5,2.5 0 0 1 750.12,542.102 L750.12,453.102 A2.5,2.5 0 0 1 752.62,450.602" fill="#FFFFFF" style="stroke:#000000;stroke-width:1;"/><line style="stroke:#000000;stroke-width:1;" x1="750.12" x2="960.0152" y1="475.6699" y2="475.6699"/><text fill="#000000" font-family="Verdana" font-size="14" font-weight="bold" lengthAdjust="spacing" textLength="196.8952" x="754.12" y="467.5679">&#1059;&#1088;&#1086;&#1074;&#1077;&#1085;&#1100; &#1076;&#1086;&#1089;&#1090;&#1091;&#1087;&#1072; &#1082; &#1076;&#1072;&#1085;&#1085;&#1099;&#1084;</text></g><!--entity CustomerAPI--><g class="entity" data-entity="CustomerAPI" data-source-line="11" data-uid="ent0005" id="entity_CustomerAPI"><rect fill="#FFFFFF" height="39.0679" rx="2.5" ry="2.5" style="stroke:#000000;stroke-width:1;" width="180.2714" x="201.17" y="711.072"/><text fill="#000000" font-family="Verdana" font-size="14" lengthAdjust="spacing" textLength="160.2714" x="211.17" y="736.0379">&#1059;&#1087;&#1088;&#1072;&#1074;&#1083;&#1077;&#1085;&#1080;&#1077; &#1082;&#1083;&#1080;&#1077;&#1085;&#1090;&#1072;&#1084;&#1080;</text></g><!--entity OrderAPI--><g class="entity" data-entity="OrderAPI" data-source-line="12" data-uid="ent0006" id="entity_OrderAPI"><rect fill="#FFFFFF" height="39.0679" rx="2.5" ry="2.5" style="stroke:#000000;stroke-width:1;" width="169.7714" x="206.42" y="563.072"/><text fill="#000000" font-family="Verdana" font-size="14" lengthAdjust="spacing" textLength="149.7714" x="216.42" y="588.0379">&#1059;&#1087;&#1088;&#1072;&#1074;&#1083;&#1077;&#1085;&#1080;&#1077; &#1079;&#1072;&#1082;&#1072;&#1079;&#1072;&#1084;&#1080;</text></g><!--entity RestaurantAPI--><g class="entity" data-entity="RestaurantAPI" data-source-line="13" data-uid="ent0007" id="entity_RestaurantAPI"><rect fill="#FFFFFF" height="39.0679" rx="2.5" ry="2.5" style="stroke:#000000;stroke-width:1;" width="195.9513" x="193.33" y="637.072"/><text fill="#000000" font-family="Verdana" font-size="14" lengthAdjust="spacing" textLength="175.9513" x="203.33" y="662.0379">&#1059;&#1087;&#1088;&#1072;&#1074;&#1083;&#1077;&#1085;&#1080;&#1077; &#1088;&#1077;&#1089;&#1090;&#1086;&#1088;&#1072;&#1085;&#1072;&#1084;&#1080;</text></g><!--entity CourierAPI--><g class="entity" data-entity="CourierAPI" data-source-line="14" data-uid="ent0008" id="entity_CourierAPI"><rect fill="#FFFFFF" height="39.0679" rx="2.5" ry="2.5" style="stroke:#000000;stroke-width:1;" width="180.0334" x="201.28" y="489.072"/><text fill="#000000" font-family="Verdana" font-size="14" lengthAdjust="spacing" textLength="160.0334" x="211.28" y="514.0379">&#1059;&#1087;&#1088;&#1072;&#1074;&#1083;&#1077;&#1085;&#1080;&#1077; &#1082;&#1091;&#1088;&#1100;&#1077;&#1088;&#1072;&#1084;&#1080;</text></g><!--entity ReviewAPI--><g class="entity" data-entity="ReviewAPI" data-source-line="15" data-uid="ent0009" id="entity_ReviewAPI"><rect fill="#FFFFFF" height="39.0679" rx="2.5" ry="2.5" style="stroke:#000000;stroke-width:1;" width="173.2854" x="204.66" y="415.072"/><text fill="#000000" font-family="Verdana" font-size="14" lengthAdjust="spacing" textLength="153.2854" x="214.66" y="440.0379">&#1059;&#1087;&#1088;&#1072;&#1074;&#1083;&#1077;&#1085;&#1080;&#1077; &#1086;&#1090;&#1079;&#1099;&#1074;&#1072;&#1084;&#1080;</text></g><!--entity OrderService--><g class="entity" data-entity="OrderService" data-source-line="21" data-uid="ent0012" id="entity_OrderService"><rect fill="#FFFFFF" height="39.0679" rx="2.5" ry="2.5" style="stroke:#000000;stroke-width:1;" width="140.8616" x="495.27" y="563.072"/><text fill="#000000" font-family="Verdana" font-size="14" lengthAdjust="spacing" textLength="120.8616" x="505.27" y="588.0379">&#1056;&#1072;&#1089;&#1095;&#1105;&#1090; &#1089;&#1090;&#1086;&#1080;&#1084;&#1086;&#1089;&#1090;&#1080;</text></g><!--entity PaymentService--><g class="entity" data-entity="PaymentService" data-source-line="22" data-uid="ent0013" id="entity_PaymentService"><rect fill="#FFFFFF" height="39.0679" rx="2.5" ry="2.5" style="stroke:#000000;stroke-width:1;" width="163.0935" x="484.15" y="637.072"/><text fill="#000000" font-family="Verdana" font-size="14" lengthAdjust="spacing" textLength="143.0935" x="494.15" y="662.0379">&#1054;&#1073;&#1088;&#1072;&#1073;&#1086;&#1090;&#1082;&#1072; &#1087;&#1083;&#1072;&#1090;&#1077;&#1078;&#1077;&#1081;</text></g><!--entity StatusService--><g class="entity" data-entity="StatusService" data-source-line="23" data-uid="ent0014" id="entity_StatusService"><rect fill="#FFFFFF" height="39.0679" rx="2.5" ry="2.5" style="stroke:#000000;stroke-width:1;" width="174.8394" x="478.28" y="489.072"/><text fill="#000000" font-family="Verdana" font-size="14" lengthAdjust="spacing" textLength="154.8394" x="488.28" y="514.0379">&#1059;&#1087;&#1088;&#1072;&#1074;&#1083;&#1077;&#1085;&#1080;&#1077; &#1089;&#1090;&#1072;&#1090;&#1091;&#1089;&#1072;&#1084;&#1080;</text></g><!--entity CourierService--><g class="entity" data-entity="CourierService" data-source-line="27" data-uid="ent0016" id="entity_CourierService"><rect fill="#FFFFFF" height="39.0679" rx="2.5" ry="2.5" style="stroke:#000000;stroke-width:1;" width="169.1414" x="481.13" y="371.072"/><text fill="#000000" font-family="Verdana" font-size="14" lengthAdjust="spacing" textLength="149.1414" x="491.13" y="396.0379">&#1053;&#1072;&#1079;&#1085;&#1072;&#1095;&#1077;&#1085;&#1080;&#1077; &#1082;&#1091;&#1088;&#1100;&#1077;&#1088;&#1086;&#1074;</text></g><!--entity ReviewService--><g class="entity" data-entity="ReviewService" data-source-line="31" data-uid="ent0018" id="entity_ReviewService"><rect fill="#FFFFFF" height="39.0679" rx="2.5" ry="2.5" style="stroke:#000000;stroke-width:1;" width="153.7415" x="488.83" y="253.072"/><text fill="#000000" font-family="Verdana" font-size="14" lengthAdjust="spacing" textLength="133.7415" x="498.83" y="278.0379">&#1054;&#1073;&#1088;&#1072;&#1073;&#1086;&#1090;&#1082;&#1072; &#1086;&#1090;&#1079;&#1099;&#1074;&#1086;&#1074;</text></g><!--entity RatingService--><g class="entity" data-entity="RatingService" data-source-line="32" data-uid="ent0019" id="entity_RatingService"><rect fill="#FFFFFF" height="39.0679" rx="2.5" ry="2.5" style="stroke:#000000;stroke-width:1;" width="140.3295" x="495.53" y="142.072"/><text fill="#000000" font-family="Verdana" font-size="14" lengthAdjust="spacing" textLength="120.3295" x="505.53" y="167.0379">&#1056;&#1072;&#1089;&#1095;&#1105;&#1090; &#1088;&#1077;&#1081;&#1090;&#1080;&#1085;&#1075;&#1086;&#1074;</text></g><!--entity ValidationService--><g class="entity" data-entity="ValidationService" data-source-line="36" data-uid="ent0021" id="entity_ValidationService"><rect fill="#FFFFFF" height="39.0679" rx="2.5" ry="2.5" style="stroke:#000000;stroke-width:1;" width="150.3115" x="490.54" y="755.072"/><text fill="#000000" font-family="Verdana" font-size="14" lengthAdjust="spacing" textLength="130.3115" x="500.54" y="780.0379">&#1042;&#1072;&#1083;&#1080;&#1076;&#1072;&#1094;&#1080;&#1103; &#1076;&#1072;&#1085;&#1085;&#1099;&#1093;</text></g><!--entity Repositories--><g class="entity" data-entity="Repositories" data-source-line="41" data-uid="ent0023" id="entity_Repositories"><rect fill="#FFFFFF" height="39.0679" rx="2.5" ry="2.5" style="stroke:#000000;stroke-width:1;" width="109.2357" x="801" y="489.072"/><text fill="#000000" font-family="Verdana" font-size="14" lengthAdjust="spacing" textLength="89.2357" x="811" y="514.0379">&#1056;&#1077;&#1087;&#1086;&#1079;&#1080;&#1090;&#1086;&#1088;&#1080;&#1080;</text></g><!--entity User--><g class="entity" data-entity="User" data-source-line="6" data-uid="ent0002" id="entity_User"><ellipse cx="58.6628" cy="551.572" fill="#FFFFFF" rx="8" ry="8" style="stroke:#000000;stroke-width:1;"/><path d="M58.6628,559.572 L58.6628,586.572 M45.6628,567.572 L71.6628,567.572 M58.6628,586.572 L45.6628,601.572 M58.6628,586.572 L71.6628,601.572" fill="none" style="stroke:#000000;stroke-width:1;"/><text fill="#000000" font-family="Verdana" font-size="14" lengthAdjust="spacing" textLength="95.3256" x="11" y="618.5379">&#1055;&#1086;&#1083;&#1100;&#1079;&#1086;&#1074;&#1072;&#1090;&#1077;&#1083;&#1100;</text></g><!--entity DB--><g class="entity" data-entity="DB" data-source-line="45" data-uid="ent0024" id="entity_DB"><path d="M1033.12,494.572 C1033.12,484.572 1086.0648,484.572 1086.0648,484.572 C1086.0648,484.572 1139.0096,484.572 1139.0096,494.572 L1139.0096,522.6399 C1139.0096,532.6399 1086.0648,532.6399 1086.0648,532.6399 C1086.0648,532.6399 1033.12,532.6399 1033.12,522.6399 L1033.12,494.572" fill="#FFFFFF" style="stroke:#000000;stroke-width:1;"/><path d="M1033.12,494.572 C1033.12,504.572 1086.0648,504.572 1086.0648,504.572 C1086.0648,504.572 1139.0096,504.572 1139.0096,494.572" fill="none" style="stroke:#000000;stroke-width:1;"/><text fill="#000000" font-family="Verdana" font-size="14" lengthAdjust="spacing" textLength="85.8896" x="1043.12" y="523.5379">&#1041;&#1072;&#1079;&#1072; &#1076;&#1072;&#1085;&#1085;&#1099;&#1093;</text></g><!--link User to CustomerAPI--><g class="link" data-entity-1="User" data-entity-2="CustomerAPI" data-source-line="47" data-uid="lnk25" id="link_User_CustomerAPI"><path d="M81.59,623.072 C96.54,646.992 118.48,675.952 145.33,693.602 C161.93,704.522 175.7822,710.6044 195.1422,716.0244" fill="none" id="User-to-CustomerAPI" style="stroke:#000000;stroke-width:1;"/><polygon fill="#000000" points="200.92,717.642,193.3316,711.3637,196.1051,716.294,191.1749,719.0675,200.92,717.642" style="stroke:#000000;stroke-width:1;"/></g><!--link User to OrderAPI--><g class="link" data-entity-1="User" data-entity-2="OrderAPI" data-source-line="48" data-uid="lnk26" id="link_User_OrderAPI"><path d="M106.61,582.602 C135.19,582.602 166.54,582.602 200.1,582.602" fill="none" id="User-to-OrderAPI" style="stroke:#000000;stroke-width:1;"/><polygon fill="#000000" points="206.1,582.602,197.1,578.602,201.1,582.602,197.1,586.602,206.1,582.602" style="stroke:#000000;stroke-width:1;"/></g><!--link User to RestaurantAPI--><g class="link" data-entity-1="User" data-entity-2="RestaurantAPI" data-source-line="49" data-uid="lnk27" id="link_User_RestaurantAPI"><path d="M106.72,604.512 C119.12,609.842 132.6,615.262 145.33,619.602 C163.64,625.852 177.7671,630.0667 196.8271,635.0767" fill="none" id="User-to-RestaurantAPI" style="stroke:#000000;stroke-width:1;"/><polygon fill="#000000" points="202.63,636.602,194.9426,630.4454,197.7943,635.3309,192.9088,638.1826,202.63,636.602" style="stroke:#000000;stroke-width:1;"/></g><!--link User to CourierAPI--><g class="link" data-entity-1="User" data-entity-2="CourierAPI" data-source-line="50" data-uid="lnk28" id="link_User_CourierAPI"><path d="M106.72,560.692 C119.12,555.362 132.6,549.942 145.33,545.602 C163.64,539.352 177.7671,535.1373 196.8271,530.1273" fill="none" id="User-to-CourierAPI" style="stroke:#000000;stroke-width:1;"/><polygon fill="#000000" points="202.63,528.602,192.9088,527.0214,197.7943,529.8731,194.9426,534.7585,202.63,528.602" style="stroke:#000000;stroke-width:1;"/></g><!--link User to ReviewAPI--><g class="link" data-entity-1="User" data-entity-2="ReviewAPI" data-source-line="51" data-uid="lnk29" id="link_User_ReviewAPI"><path d="M81.59,542.132 C96.54,518.212 118.48,489.252 145.33,471.602 C162.91,460.042 178.0736,453.6417 198.5336,448.1717" fill="none" id="User-to-ReviewAPI" style="stroke:#000000;stroke-width:1;"/><polygon fill="#000000" points="204.33,446.622,194.6022,445.0822,199.4996,447.9134,196.6685,452.8108,204.33,446.622" style="stroke:#000000;stroke-width:1;"/></g><!--link CustomerAPI to ValidationService--><g class="link" data-entity-1="CustomerAPI" data-entity-2="ValidationService" data-source-line="53" data-uid="lnk30" id="link_CustomerAPI_ValidationService"><path d="M381.87,745.072 C416.92,750.732 450.7167,756.1958 484.1667,761.5958" fill="none" id="CustomerAPI-to-ValidationService" style="stroke:#000000;stroke-width:1;"/><polygon fill="#000000" points="490.09,762.552,481.8425,757.1688,485.1539,761.7551,480.5675,765.0665,490.09,762.552" style="stroke:#000000;stroke-width:1;"/></g><!--link OrderAPI to OrderService--><g class="link" data-entity-1="OrderAPI" data-entity-2="OrderService" data-source-line="54" data-uid="lnk31" id="link_OrderAPI_OrderService"><path d="M376.62,582.602 C414.59,582.602 452.88,582.602 488.95,582.602" fill="none" id="OrderAPI-to-OrderService" style="stroke:#000000;stroke-width:1;"/><polygon fill="#000000" points="494.95,582.602,485.95,578.602,489.95,582.602,485.95,586.602,494.95,582.602" style="stroke:#000000;stroke-width:1;"/></g><!--link OrderAPI to PaymentService--><g class="link" data-entity-1="OrderAPI" data-entity-2="PaymentService" data-source-line="55" data-uid="lnk32" id="link_OrderAPI_PaymentService"><path d="M366.02,602.632 C404.93,613.202 446.75,624.5586 485.61,635.1186" fill="none" id="OrderAPI-to-PaymentService" style="stroke:#000000;stroke-width:1;"/><polygon fill="#000000" points="491.4,636.692,483.7639,630.4719,486.575,635.3808,481.666,638.1919,491.4,636.692" style="stroke:#000000;stroke-width:1;"/></g><!--link RestaurantAPI to ValidationService--><g class="link" data-entity-1="RestaurantAPI" data-entity-2="ValidationService" data-source-line="56" data-uid="lnk33" id="link_RestaurantAPI_ValidationService"><path d="M365.72,676.552 C381.61,681.562 398.17,687.322 413.28,693.602 C455.67,711.232 496.6893,733.9184 526.7593,751.6184" fill="none" id="RestaurantAPI-to-ValidationService" style="stroke:#000000;stroke-width:1;"/><polygon fill="#000000" points="531.93,754.662,526.203,746.6494,527.6211,752.1256,522.1448,753.5437,531.93,754.662" style="stroke:#000000;stroke-width:1;"/></g><!--link CourierAPI to CourierService--><g class="link" data-entity-1="CourierAPI" data-entity-2="CourierService" data-source-line="57" data-uid="lnk34" id="link_CourierAPI_CourierService"><path d="M365.72,488.652 C381.61,483.642 398.17,477.882 413.28,471.602 C455.67,453.972 496.6893,431.2856 526.7593,413.5856" fill="none" id="CourierAPI-to-CourierService" style="stroke:#000000;stroke-width:1;"/><polygon fill="#000000" points="531.93,410.542,522.1448,411.6603,527.6211,413.0783,526.203,418.5546,531.93,410.542" style="stroke:#000000;stroke-width:1;"/></g><!--link CourierAPI to StatusService--><g class="link" data-entity-1="CourierAPI" data-entity-2="StatusService" data-source-line="58" data-uid="lnk35" id="link_CourierAPI_StatusService"><path d="M381.49,508.602 C412.53,508.602 441.27,508.602 472.09,508.602" fill="none" id="CourierAPI-to-StatusService" style="stroke:#000000;stroke-width:1;"/><polygon fill="#000000" points="478.09,508.602,469.09,504.602,473.09,508.602,469.09,512.602,478.09,508.602" style="stroke:#000000;stroke-width:1;"/></g><!--link ReviewAPI to ReviewService--><g class="link" data-entity-1="ReviewAPI" data-entity-2="ReviewService" data-source-line="59" data-uid="lnk36" id="link_ReviewAPI_ReviewService"><path d="M325.98,414.572 C378.36,383.422 473.6032,326.7791 525.9432,295.6491" fill="none" id="ReviewAPI-to-ReviewService" style="stroke:#000000;stroke-width:1;"/><polygon fill="#000000" points="531.1,292.582,521.32,293.7447,526.8026,295.1379,525.4095,300.6205,531.1,292.582" style="stroke:#000000;stroke-width:1;"/></g><!--link ReviewService to RatingService--><g class="link" data-entity-1="ReviewService" data-entity-2="RatingService" data-source-line="61" data-uid="lnk37" id="link_ReviewService_RatingService"><path d="M565.7,252.762 C565.7,232.552 565.7,207.412 565.7,187.272" fill="none" id="ReviewService-to-RatingService" style="stroke:#000000;stroke-width:1;stroke-dasharray:7,7;"/><polygon fill="#000000" points="565.7,181.272,561.7,190.272,565.7,186.272,569.7,190.272,565.7,181.272" style="stroke:#000000;stroke-width:1;"/><text fill="#000000" font-family="Verdana" font-size="13" lengthAdjust="spacing" textLength="59.0331" x="515.1775" y="213.499">&#1055;&#1077;&#1088;&#1077;&#1089;&#1095;&#1105;&#1090;</text><text fill="#000000" font-family="Verdana" font-size="13" lengthAdjust="spacing" textLength="65.9881" x="511.7" y="231.205">&#1088;&#1077;&#1081;&#1090;&#1080;&#1085;&#1075;&#1086;&#1074;</text></g><!--link OrderService to Repositories--><g class="link" data-entity-1="OrderService" data-entity-2="Repositories" data-source-line="63" data-uid="lnk38" id="link_OrderService_Repositories"><path d="M636.39,564.692 C686.99,551.682 748.6189,535.8457 795.0689,523.9057" fill="none" id="OrderService-to-Repositories" style="stroke:#000000;stroke-width:1;"/><polygon fill="#000000" points="800.88,522.412,791.1675,520.7785,796.0374,523.6568,793.1592,528.5267,800.88,522.412" style="stroke:#000000;stroke-width:1;"/></g><!--link PaymentService to Repositories--><g class="link" data-entity-1="PaymentService" data-entity-2="Repositories" data-source-line="64" data-uid="lnk39" id="link_PaymentService_Repositories"><path d="M647.66,639.352 C665.7,634.142 684.42,627.612 701.12,619.602 C752.41,594.992 799.9524,556.8891 828.3224,532.2191" fill="none" id="PaymentService-to-Repositories" style="stroke:#000000;stroke-width:1;"/><polygon fill="#000000" points="832.85,528.282,823.4339,531.1693,829.077,531.5629,828.6833,537.206,832.85,528.282" style="stroke:#000000;stroke-width:1;"/></g><!--link CourierService to Repositories--><g class="link" data-entity-1="CourierService" data-entity-2="Repositories" data-source-line="65" data-uid="lnk40" id="link_CourierService_Repositories"><path d="M615.54,410.622 C668.64,432.382 747.458,464.6871 800.468,486.4071" fill="none" id="CourierService-to-Repositories" style="stroke:#000000;stroke-width:1;"/><polygon fill="#000000" points="806.02,488.682,799.2085,481.5683,801.3933,486.7863,796.1754,488.9711,806.02,488.682" style="stroke:#000000;stroke-width:1;"/></g><!--link ValidationService to Repositories--><g class="link" data-entity-1="ValidationService" data-entity-2="Repositories" data-source-line="66" data-uid="lnk41" id="link_ValidationService_Repositories"><path d="M606.93,754.582 C634.92,739.622 672.24,717.502 701.12,692.602 C761.13,640.842 813.4361,569.1799 838.0061,533.3599" fill="none" id="ValidationService-to-Repositories" style="stroke:#000000;stroke-width:1;"/><polygon fill="#000000" points="841.4,528.412,833.0106,533.5712,838.5718,532.5352,839.6077,538.0964,841.4,528.412" style="stroke:#000000;stroke-width:1;"/></g><!--link StatusService to Repositories--><g class="link" data-entity-1="StatusService" data-entity-2="Repositories" data-source-line="67" data-uid="lnk42" id="link_StatusService_Repositories"><path d="M653.47,508.602 C701.32,508.602 753.24,508.602 794.62,508.602" fill="none" id="StatusService-to-Repositories" style="stroke:#000000;stroke-width:1;"/><polygon fill="#000000" points="800.62,508.602,791.62,504.602,795.62,508.602,791.62,512.602,800.62,508.602" style="stroke:#000000;stroke-width:1;"/></g><!--link ReviewService to Repositories--><g class="link" data-entity-1="ReviewService" data-entity-2="Repositories" data-source-line="68" data-uid="lnk43" id="link_ReviewService_Repositories"><path d="M604.79,292.612 C632.6,307.972 670.63,330.572 701.12,354.602 C755.38,397.362 806.551,453.1647 833.581,484.0847" fill="none" id="ReviewService-to-Repositories" style="stroke:#000000;stroke-width:1;"/><polygon fill="#000000" points="837.53,488.602,834.6181,479.1934,834.2392,484.8376,828.595,484.4587,837.53,488.602" style="stroke:#000000;stroke-width:1;"/></g><!--link RatingService to Repositories--><g class="link" data-entity-1="RatingService" data-entity-2="Repositories" data-source-line="69" data-uid="lnk44" id="link_RatingService_Repositories"><path d="M617.69,181.492 C644.86,193.972 677.46,212.162 701.12,235.602 C779.71,313.492 828.3225,434.4149 845.7825,483.0449" fill="none" id="RatingService-to-Repositories" style="stroke:#000000;stroke-width:1;"/><polygon fill="#000000" points="847.81,488.692,848.5334,478.8697,846.1204,483.9861,841.004,481.5731,847.81,488.692" style="stroke:#000000;stroke-width:1;"/></g><!--link Repositories to DB--><g class="link" data-entity-1="Repositories" data-entity-2="DB" data-source-line="71" data-uid="lnk45" id="link_Repositories_DB"><path d="M910.47,508.602 C947.4,508.602 990.15,508.602 1026.75,508.602" fill="none" id="Repositories-to-DB" style="stroke:#000000;stroke-width:1;"/><polygon fill="#000000" points="1032.75,508.602,1023.75,504.602,1027.75,508.602,1023.75,512.602,1032.75,508.602" style="stroke:#000000;stroke-width:1;"/></g><!--SRC=[bLN1JXin4BtxAzpSuGDwG6hffQSYK7jfUp29IImskz6k0q9L91BKSW2fWcEbjaZy007IX132BzX_r6TlicjdbpP4WknwPjwyDpEUl90DtkIq5J0HacHNX2qMioQjHirM5F9GRic3WDEOLoKBwm5tNBPPTRSUH-smjXu5KKpt6qAwzgJ1Qj6-2EjqXmK99m7VaLH6D1RrXgGrOJ15519MbOYkgDzggkxrgHhY-rfTwPuQcFSAPGbzd_2Oa1OoiZetllfGZTGzFF_0wm7FWmhzGYW-zb_kUGbFWmSlVKhL8ru7wbPt0N-5u_iqN7-VXvlFHtLf7Hq7DQ1gZ9UH1JAn4pNwRAYjjnCPDNdyQkFj_m26E1ZZR-Y4lujhoyGQsfRqr9eU78HDdaZMZbaebw0mraVw44KUM5Ec8Mh7OYa9Kr0OwXFJ88V0dk3xy-3E4bte0sm8I4XQiLsymS5OZTmcP0_Px07db-fRJdrB1BLqYue4Ba2guWAJrDN7-aptQ5f0f9eWt3mxBTZYyPweyeNeadoF89mEfnczEukmmGwQvgwKOfIsqywVxg4RNQUIMvB9Th88q_btJKhxT3jJQ8x7q7nNhCnFMpHCaZukdm_KqvsEPzBwaG9R5jTg2iaMz1gN3PABT4fAdG_Rd4ewQkLrzZfjRlcTwJ24tUJXJ68VFLF8EVW-0c9YvpJRIvZaatphv3JEeS7iYLkuVZERnJJ3t5Zuww-MnWSMY1epow-SoZ9NQDPWVGHkADNOoQ8c_ZAxG8mHC0IRT86CiflRYXA1zIjuCilS8GJKs3PBJDApT5jv4kn2VlEQ4BEKwShAchS2iyDiiMKd_gBAe_FbuxZELmfnmAsfMBnvfZnjgMNXadfida3EgRbCdx3wbpTJuEYPsuZtIbVjB-BgcZ-UzANzJHpCDh-TwqzXSR0hXBYQP-cSllgwYtPVLT5UA4lHnPDUDFjoYsPFTi5Ct3Thnl3z1G00]--></g></svg>